Coordinates
version=1
nRows=7
nColumns=40
inDegrees=yes

Units are S.I. units (second, meters, Newtons, ...)
If the header above contains a line with 'inDegrees', this indicates whether rotational values are in degrees (yes) or radians (no).

endheader
time	pelvis_tilt	pelvis_list	pelvis_rotation	pelvis_tx	pelvis_ty	pelvis_tz	hip_flexion_r	hip_adduction_r	hip_rotation_r	knee_angle_r	knee_angle_r_beta	ankle_angle_r	subtalar_angle_r	mtp_angle_r	hip_flexion_l	hip_adduction_l	hip_rotation_l	knee_angle_l	knee_angle_l_beta	ankle_angle_l	subtalar_angle_l	mtp_angle_l	lumbar_extension	lumbar_bending	lumbar_rotation	arm_flex_r	arm_add_r	arm_rot_r	elbow_flex_r	pro_sup_r	wrist_flex_r	wrist_dev_r	arm_flex_l	arm_add_l	arm_rot_l	elbow_flex_l	pro_sup_l	wrist_flex_l	wrist_dev_l
      3.45000000	     -1.22614440	     -4.30796839	     -0.71758702	     -0.36141854	      1.00566074	     -1.05900026	     47.16920489	      0.74660393	     -6.81261942	      6.01189344	      0.10492733	      2.85813273	      0.00000000	      0.00000000	     24.35258898	     -2.37926465	     -3.92590374	     41.27478198	      0.72038084	      4.13842971	      0.00000000	      0.00000000	     -7.33678370	     -1.22014887	      4.08336330	     89.95400783	    -16.85423381	     22.53922127	     39.98128241	     74.38891393	      0.00000000	      0.00000000	     89.92963618	    -31.32117021	     17.65892584	     43.46645088	     84.20987127	      0.00000000	      0.00000000
      3.45500000	     -1.32213148	     -4.32723930	     -0.75451111	     -0.36190549	      1.00483932	     -1.05883012	     47.30937755	      0.80054901	     -6.81570716	      5.99454396	      0.10462453	      3.01754838	      0.00000000	      0.00000000	     24.60668867	     -2.40739111	     -3.86879914	     41.52251774	      0.72470465	      4.26003334	      0.00000000	      0.00000000	     -7.25965453	     -1.22044467	      4.17205235	     89.95401893	    -16.83097188	     23.34951700	     40.18253957	     65.79753791	      0.00000000	      0.00000000	     89.93019476	    -31.16496812	     18.75995252	     43.69078921	     72.49937298	      0.00000000	      0.00000000
      3.46000000	     -1.30585224	     -4.25202752	     -0.83349762	     -0.36231689	      1.00432116	     -1.05867583	     47.36933274	      0.79414897	     -6.79949671	      6.05797800	      0.10573166	      2.85556461	      0.00000000	      0.00000000	     24.67616323	     -2.35033108	     -3.92782129	     41.66333650	      0.72716240	      4.31444742	      0.00000000	      0.00000000	     -7.34352336	     -1.30217383	      4.22389315	     89.95440411	    -16.75968785	     22.43649489	     40.04349955	     74.14567746	      0.00000000	      0.00000000	     89.93023601	    -31.19316616	     17.48426329	     43.62681021	     84.18414702	      0.00000000	      0.00000000
      3.46500000	     -1.33869804	     -4.30437664	     -0.85088473	     -0.36277244	      1.00365560	     -1.05851928	     47.45424268	      0.85164606	     -6.89045540	      6.09170585	      0.10632032	      2.89402070	      0.00000000	      0.00000000	     24.85126162	     -2.41160746	     -3.87667359	     41.89614941	      0.73122575	      4.43540088	      0.00000000	      0.00000000	     -7.34915974	     -1.24075107	      4.22977831	     89.95449648	    -16.65126951	     22.42262241	     40.00426028	     73.90839303	      0.00000000	      0.00000000	     89.93067762	    -31.15667598	     17.34760065	     43.64990562	     84.14341001	      0.00000000	      0.00000000
      3.47000000	     -1.36446585	     -4.34567476	     -0.84663073	     -0.36319220	      1.00300606	     -1.05845341	     47.52414409	      0.88182309	     -6.96871570	      6.10906927	      0.10662337	      2.90750118	      0.00000000	      0.00000000	     24.99472769	     -2.43476388	     -3.78716322	     42.06392283	      0.73415395	      4.50719646	      0.00000000	      0.00000000	     -7.36227434	     -1.18228024	      4.23271459	     89.95461893	    -16.55463260	     22.74714482	     40.12611388	     70.27546498	      0.00000000	      0.00000000	     89.93094816	    -31.14505103	     17.29015948	     43.70585460	     84.36946199	      0.00000000	      0.00000000
      3.47500000	     -1.39866433	     -4.31659490	     -0.90031650	     -0.36376562	      1.00230505	     -1.05836747	     47.61964688	      0.89753302	     -6.97567272	      6.12207406	      0.10685035	      2.84084313	      0.00000000	      0.00000000	     25.17036137	     -2.39157349	     -3.73535836	     42.28600120	      0.73802995	      4.63781168	      0.00000000	      0.00000000	     -7.37685305	     -1.20110722	      4.28794473	     89.95484500	    -16.47625984	     22.75002882	     40.17914118	     69.56239441	      0.00000000	      0.00000000	     89.93146544	    -31.10210438	     17.18429135	     43.75194727	     84.37825533	      0.00000000	      0.00000000
      3.48000000	     -1.40826480	     -4.33518822	     -0.88607848	     -0.36412539	      1.00171665	     -1.05833337	     47.66623084	      0.90084646	     -7.05726523	      6.13704089	      0.10711157	      2.83277183	      0.00000000	      0.00000000	     25.29655578	     -2.37447930	     -3.62461944	     42.46535662	      0.74116029	      4.66986640	      0.00000000	      0.00000000	     -7.40510119	     -1.18435113	      4.30297809	     89.95490359	    -16.45230967	     22.26851548	     40.09177733	     73.76686031	      0.00000000	      0.00000000	     89.93192539	    -31.02684127	     17.13057900	     43.81329765	     84.06305854	      0.00000000	      0.00000000
